<svg width="183" height="43" viewBox="0 0 183 43" fill="none" xmlns="http://www.w3.org/2000/svg">
<path d="M0 8.53337C0 5.54643 0 4.05295 0.581299 2.91209C1.09262 1.90856 1.90852 1.09267 2.91205 0.581341C4.05291 4.25975e-05 5.54639 4.24385e-05 8.53333 4.24385e-05H20.8C23.7869 4.24385e-05 25.2804 4.25975e-05 26.4213 0.581341C27.4248 1.09267 28.2407 1.90856 28.752 2.91209C29.3333 4.05295 29.3333 5.54643 29.3333 8.53337V20.8C29.3333 23.787 29.3333 25.2805 28.752 26.4213C28.2407 27.4249 27.4248 28.2408 26.4213 28.7521C25.2804 29.3334 23.7869 29.3334 20.8 29.3334H8.53333C5.54639 29.3334 4.05291 29.3334 2.91205 28.7521C1.90852 28.2408 1.09262 27.4249 0.581299 26.4213C0 25.2805 0 23.787 0 20.8V8.53337Z" fill="#191919" fill-opacity="0.3"/>
<path d="M13.3334 21.8666C13.3334 18.8797 13.3334 17.3862 13.9147 16.2453C14.426 15.2418 15.2419 14.4259 16.2454 13.9146C17.3863 13.3333 18.8798 13.3333 21.8667 13.3333H34.1334C37.1203 13.3333 38.6138 13.3333 39.7547 13.9146C40.7582 14.4259 41.5741 15.2418 42.0854 16.2453C42.6667 17.3862 42.6667 18.8797 42.6667 21.8666V34.1333C42.6667 37.1202 42.6667 38.6137 42.0854 39.7546C41.5741 40.7581 40.7582 41.574 39.7547 42.0853C38.6138 42.6666 37.1203 42.6666 34.1334 42.6666H21.8667C18.8798 42.6666 17.3863 42.6666 16.2454 42.0853C15.2419 41.574 14.426 40.7581 13.9147 39.7546C13.3334 38.6137 13.3334 37.1202 13.3334 34.1333V21.8666Z" fill="#143E95"/>
<path d="M55.4622 28.6666L51.0834 13.1515H54.1061L56.9016 24.553H57.0455L60.0303 13.1515H62.7803L65.7728 24.5606H65.9091L68.7046 13.1515H71.7273L67.3485 28.6666H64.5758L61.4697 17.7803H61.3485L58.2349 28.6666H55.4622ZM77.4432 28.8939C76.3069 28.8939 75.322 28.6439 74.4887 28.1439C73.6553 27.6439 73.0089 26.9444 72.5493 26.0454C72.0947 25.1464 71.8675 24.0959 71.8675 22.8939C71.8675 21.6919 72.0947 20.6389 72.5493 19.7348C73.0089 18.8308 73.6553 18.1288 74.4887 17.6288C75.322 17.1288 76.3069 16.8788 77.4432 16.8788C78.5796 16.8788 79.5644 17.1288 80.3978 17.6288C81.2311 18.1288 81.875 18.8308 82.3296 19.7348C82.7892 20.6389 83.019 21.6919 83.019 22.8939C83.019 24.0959 82.7892 25.1464 82.3296 26.0454C81.875 26.9444 81.2311 27.6439 80.3978 28.1439C79.5644 28.6439 78.5796 28.8939 77.4432 28.8939ZM77.4584 26.697C78.0745 26.697 78.5897 26.5278 79.0038 26.1894C79.418 25.8459 79.726 25.3863 79.9281 24.8106C80.1351 24.2348 80.2387 23.5934 80.2387 22.8863C80.2387 22.1742 80.1351 21.5303 79.9281 20.9545C79.726 20.3737 79.418 19.9116 79.0038 19.5682C78.5897 19.2247 78.0745 19.053 77.4584 19.053C76.8271 19.053 76.3018 19.2247 75.8826 19.5682C75.4685 19.9116 75.1579 20.3737 74.9508 20.9545C74.7488 21.5303 74.6478 22.1742 74.6478 22.8863C74.6478 23.5934 74.7488 24.2348 74.9508 24.8106C75.1579 25.3863 75.4685 25.8459 75.8826 26.1894C76.3018 26.5278 76.8271 26.697 77.4584 26.697ZM85.3466 28.6666V17.0303H88.0057V18.9697H88.1269C88.339 18.298 88.7027 17.7803 89.2178 17.4166C89.738 17.048 90.3315 16.8636 90.9981 16.8636C91.1497 16.8636 91.3188 16.8712 91.5057 16.8863C91.6976 16.8965 91.8567 16.9141 91.983 16.9394V19.4621C91.8668 19.4217 91.6825 19.3863 91.43 19.356C91.1825 19.3207 90.9426 19.303 90.7103 19.303C90.2103 19.303 89.7608 19.4116 89.3618 19.6288C88.9678 19.8409 88.6572 20.1363 88.43 20.5151C88.2027 20.8939 88.0891 21.3308 88.0891 21.8257V28.6666H85.3466ZM96.5474 13.1515V28.6666H93.805V13.1515H96.5474ZM103.686 28.8712C102.772 28.8712 101.953 28.6363 101.231 28.1666C100.509 27.697 99.9382 27.0151 99.519 26.1212C99.0998 25.2273 98.8902 24.1414 98.8902 22.8636C98.8902 21.5707 99.1023 20.4798 99.5266 19.5909C99.9558 18.697 100.534 18.0227 101.261 17.5682C101.989 17.1086 102.799 16.8788 103.693 16.8788C104.375 16.8788 104.936 16.9949 105.375 17.2273C105.814 17.4545 106.163 17.7298 106.42 18.053C106.678 18.3712 106.878 18.6717 107.019 18.9545H107.133V13.1515H109.883V28.6666H107.186V26.8333H107.019C106.878 27.1161 106.673 27.4166 106.405 27.7348C106.138 28.048 105.784 28.3156 105.345 28.5379C104.905 28.7601 104.352 28.8712 103.686 28.8712ZM104.451 26.6212C105.032 26.6212 105.527 26.4646 105.936 26.1515C106.345 25.8333 106.655 25.3914 106.867 24.8257C107.08 24.2601 107.186 23.601 107.186 22.8485C107.186 22.0959 107.08 21.4419 106.867 20.8863C106.66 20.3308 106.352 19.899 105.943 19.5909C105.539 19.2828 105.042 19.1288 104.451 19.1288C103.84 19.1288 103.33 19.2879 102.92 19.606C102.511 19.9242 102.203 20.3636 101.996 20.9242C101.789 21.4848 101.686 22.1262 101.686 22.8485C101.686 23.5757 101.789 24.2247 101.996 24.7954C102.208 25.3611 102.519 25.8081 102.928 26.1363C103.342 26.4596 103.85 26.6212 104.451 26.6212ZM112.244 15.5076V13.1515H124.623V15.5076H119.828V28.6666H117.04V15.5076H112.244ZM125.68 28.6666V17.0303H128.339V18.9697H128.46C128.672 18.298 129.036 17.7803 129.551 17.4166C130.071 17.048 130.665 16.8636 131.331 16.8636C131.483 16.8636 131.652 16.8712 131.839 16.8863C132.031 16.8965 132.19 16.9141 132.316 16.9394V19.4621C132.2 19.4217 132.016 19.3863 131.763 19.356C131.516 19.3207 131.276 19.303 131.044 19.303C130.544 19.303 130.094 19.4116 129.695 19.6288C129.301 19.8409 128.991 20.1363 128.763 20.5151C128.536 20.8939 128.422 21.3308 128.422 21.8257V28.6666H125.68ZM138.811 28.8939C137.644 28.8939 136.636 28.6515 135.788 28.1666C134.944 27.6767 134.295 26.9848 133.841 26.0909C133.386 25.1919 133.159 24.1338 133.159 22.9166C133.159 21.7197 133.386 20.6692 133.841 19.7651C134.301 18.856 134.942 18.149 135.765 17.6439C136.588 17.1338 137.556 16.8788 138.667 16.8788C139.384 16.8788 140.061 16.9949 140.697 17.2273C141.338 17.4545 141.904 17.8081 142.394 18.2879C142.889 18.7677 143.278 19.3788 143.561 20.1212C143.843 20.8586 143.985 21.7374 143.985 22.7576V23.5985H134.447V21.75H141.356C141.351 21.2247 141.237 20.7576 141.015 20.3485C140.793 19.9343 140.482 19.6086 140.083 19.3712C139.689 19.1338 139.23 19.0151 138.705 19.0151C138.144 19.0151 137.652 19.1515 137.227 19.4242C136.803 19.6919 136.472 20.0454 136.235 20.4848C136.003 20.9192 135.884 21.3964 135.879 21.9166V23.5303C135.879 24.2071 136.003 24.7879 136.25 25.2727C136.498 25.7525 136.843 26.1212 137.288 26.3788C137.732 26.6313 138.253 26.7576 138.849 26.7576C139.248 26.7576 139.609 26.702 139.932 26.5909C140.255 26.4747 140.535 26.3055 140.773 26.0833C141.01 25.8611 141.189 25.5858 141.311 25.2576L143.871 25.5454C143.71 26.2222 143.402 26.8131 142.947 27.3182C142.498 27.8182 141.922 28.2071 141.22 28.4848C140.518 28.7576 139.715 28.8939 138.811 28.8939ZM149.047 21.8485V28.6666H146.305V17.0303H148.926V19.0076H149.063C149.33 18.356 149.757 17.8384 150.343 17.4545C150.934 17.0707 151.664 16.8788 152.532 16.8788C153.335 16.8788 154.035 17.0505 154.631 17.3939C155.232 17.7374 155.696 18.2348 156.025 18.8863C156.358 19.5379 156.522 20.3283 156.517 21.2576V28.6666H153.775V21.6818C153.775 20.904 153.573 20.2954 153.169 19.856C152.77 19.4166 152.217 19.197 151.51 19.197C151.03 19.197 150.603 19.303 150.229 19.5151C149.861 19.7222 149.57 20.0227 149.358 20.4166C149.151 20.8106 149.047 21.2879 149.047 21.8485ZM163.623 28.8712C162.709 28.8712 161.891 28.6363 161.169 28.1666C160.446 27.697 159.876 27.0151 159.456 26.1212C159.037 25.2273 158.828 24.1414 158.828 22.8636C158.828 21.5707 159.04 20.4798 159.464 19.5909C159.893 18.697 160.472 18.0227 161.199 17.5682C161.926 17.1086 162.737 16.8788 163.631 16.8788C164.313 16.8788 164.873 16.9949 165.313 17.2273C165.752 17.4545 166.1 17.7298 166.358 18.053C166.616 18.3712 166.815 18.6717 166.956 18.9545H167.07V13.1515H169.82V28.6666H167.123V26.8333H166.956C166.815 27.1161 166.611 27.4166 166.343 27.7348C166.075 28.048 165.722 28.3156 165.282 28.5379C164.843 28.7601 164.29 28.8712 163.623 28.8712ZM164.388 26.6212C164.969 26.6212 165.464 26.4646 165.873 26.1515C166.282 25.8333 166.593 25.3914 166.805 24.8257C167.017 24.2601 167.123 23.601 167.123 22.8485C167.123 22.0959 167.017 21.4419 166.805 20.8863C166.598 20.3308 166.29 19.899 165.881 19.5909C165.477 19.2828 164.979 19.1288 164.388 19.1288C163.777 19.1288 163.267 19.2879 162.858 19.606C162.449 19.9242 162.141 20.3636 161.934 20.9242C161.727 21.4848 161.623 22.1262 161.623 22.8485C161.623 23.5757 161.727 24.2247 161.934 24.7954C162.146 25.3611 162.456 25.8081 162.866 26.1363C163.28 26.4596 163.787 26.6212 164.388 26.6212ZM181.939 20.106L179.439 20.3788C179.369 20.1262 179.245 19.8889 179.068 19.6666C178.896 19.4444 178.664 19.2651 178.371 19.1288C178.078 18.9924 177.72 18.9242 177.295 18.9242C176.725 18.9242 176.245 19.048 175.856 19.2954C175.472 19.5429 175.283 19.8636 175.288 20.2576C175.283 20.5959 175.407 20.8712 175.659 21.0833C175.917 21.2954 176.341 21.4697 176.932 21.606L178.917 22.0303C180.018 22.2677 180.836 22.6439 181.371 23.1591C181.912 23.6742 182.184 24.3485 182.189 25.1818C182.184 25.9141 181.97 26.5606 181.545 27.1212C181.126 27.6767 180.543 28.1111 179.795 28.4242C179.048 28.7374 178.189 28.8939 177.22 28.8939C175.795 28.8939 174.649 28.5959 173.78 28C172.912 27.399 172.394 26.5631 172.227 25.4924L174.902 25.2348C175.023 25.7601 175.28 26.1565 175.674 26.4242C176.068 26.6919 176.581 26.8257 177.212 26.8257C177.864 26.8257 178.386 26.6919 178.78 26.4242C179.179 26.1565 179.379 25.8257 179.379 25.4318C179.379 25.0985 179.25 24.8232 178.992 24.606C178.74 24.3889 178.346 24.2222 177.811 24.106L175.826 23.6894C174.71 23.4571 173.884 23.0656 173.349 22.5151C172.813 21.9596 172.548 21.2576 172.553 20.4091C172.548 19.6919 172.742 19.0707 173.136 18.5454C173.535 18.0151 174.088 17.606 174.795 17.3182C175.508 17.0252 176.328 16.8788 177.258 16.8788C178.621 16.8788 179.694 17.1692 180.477 17.75C181.265 18.3308 181.753 19.1161 181.939 20.106Z" fill="#191919"/>
</svg>
